<?xml version="1.0" encoding="UTF-8"?>
<svg id="Layer_1" data-name="Layer 1" xmlns="http://www.w3.org/2000/svg" viewBox="0 0 2000 1000">
  <defs>
    <style>
      .cls-1 {
        fill: #7db241;
      }

      .cls-2 {
        fill: #2190a3;
      }
    </style>
  </defs>
  <path class="cls-1" d="M769.49,292.15v260.25c0,40.43-36.18,73.21-80.81,73.21h-287.29c-44.63,0-80.81-32.78-80.81-73.21v-15.23s256.72,0,256.72,0c31.16,0,56.41-22.88,56.41-51.11v-127.59c0-28.23-25.26-51.11-56.41-51.11h-256.72s0-15.23,0-15.23c0-40.43,36.18-73.21,80.81-73.21h287.29c44.63,0,80.81,32.78,80.81,73.21Z"/>
  <path class="cls-2" d="M108.94,450.9v260.25c0,40.43,36.18,73.21,80.81,73.21h287.29c44.63,0,80.81-32.78,80.81-73.21v-15.23s-256.72,0-256.72,0c-31.16,0-56.41-22.88-56.41-51.11v-127.59c0-28.23,25.26-51.11,56.41-51.11h256.72s0-15.23,0-15.23c0-40.43-36.18-73.21-80.81-73.21H189.76c-44.63,0-80.81,32.78-80.81,73.21Z"/>
  <g>
    <path class="cls-2" d="M854.77,541.58l127.81-322.99h66.44l126.89,322.99h-79.36l-60.91-163.8c-2.47-6.46-4.92-13.38-7.38-20.76-2.47-7.38-4.92-15-7.38-22.84-2.47-7.84-4.84-15.53-7.15-23.07-2.31-7.53-4.23-14.53-5.77-20.99l13.84-.46c-1.85,7.69-3.92,15.23-6.23,22.61-2.31,7.38-4.61,14.69-6.92,21.92-2.31,7.23-4.84,14.46-7.61,21.69-2.77,7.23-5.39,14.69-7.84,22.38l-60.91,163.34h-77.52ZM915.68,479.75l24.45-59.06h148.57l23.99,59.06h-197.02Z"/>
    <path class="cls-2" d="M1205.44,541.58V218.59h135.19c23.68,0,45.37,3.92,65.06,11.77,19.68,7.84,36.68,19,50.99,33.45,14.3,14.46,25.3,31.53,32.99,51.22,7.69,19.69,11.54,41.38,11.54,65.06s-3.85,45.45-11.54,65.29c-7.69,19.84-18.69,36.91-32.99,51.22s-31.3,25.38-50.99,33.22c-19.69,7.84-41.38,11.77-65.06,11.77h-135.19ZM1283.88,488.06l-10.61-15.69h65.06c12.92,0,24.45-2.23,34.61-6.69,10.15-4.46,18.84-10.68,26.07-18.69,7.22-8,12.84-17.69,16.84-29.07,3.99-11.38,6-23.99,6-37.84s-2-26.45-6-37.84c-4-11.38-9.62-21.07-16.84-29.07-7.23-8-15.92-14.22-26.07-18.69-10.15-4.46-21.69-6.69-34.61-6.69h-66.44l12-14.77v215.02Z"/>
    <path class="cls-2" d="M1551.03,541.58V218.59h145.34c20.6,0,39.29,4.46,56.06,13.38,16.76,8.93,29.91,21.15,39.45,36.68,9.53,15.54,14.3,33.15,14.3,52.83s-4.77,38.53-14.3,54.68c-9.54,16.15-22.61,28.84-39.22,38.07-16.61,9.23-35.38,13.84-56.29,13.84h-70.6v113.51h-74.75ZM1625.78,368.09h63.67c8,0,15-1.77,20.99-5.31,6-3.53,10.61-8.54,13.84-15,3.23-6.46,4.84-13.84,4.84-22.15s-1.85-15.61-5.54-21.92c-3.69-6.3-9-11.15-15.92-14.53-6.92-3.38-15.31-5.08-25.15-5.08h-56.75v83.98ZM1730.05,541.58l-82.13-145.81,80.29-11.54,91.36,157.34h-89.51Z"/>
  </g>
  <g>
    <path class="cls-1" d="M855.75,782.2v-148.34h15.05l97.05,128.42-2.97,3.81c-.42-2.26-.74-5.65-.95-10.17-.21-4.52-.42-9.64-.64-15.36-.21-5.72-.39-11.69-.53-17.91-.14-6.21-.25-12.29-.32-18.22-.07-5.93-.11-11.3-.11-16.11v-54.46h16.53v148.34h-15.47l-96.63-126.72,2.54-4.45c.42,5.65.81,11.23,1.17,16.74.35,5.51.64,10.81.85,15.89.21,5.09.39,9.75.53,13.99.14,4.24.24,7.84.32,10.81.07,2.97.11,5.09.11,6.36v67.39h-16.53Z"/>
    <path class="cls-1" d="M1062.99,784.32c-11.02,0-20.8-2.47-29.35-7.42-8.55-4.94-15.26-11.79-20.13-20.56-4.87-8.76-7.31-18.72-7.31-29.88s2.44-20.84,7.31-29.46c4.87-8.62,11.58-15.4,20.13-20.34,8.55-4.94,18.33-7.42,29.35-7.42s20.59,2.47,29.14,7.42c8.55,4.95,15.26,11.73,20.13,20.34,4.87,8.62,7.31,18.44,7.31,29.46s-2.44,21.12-7.31,29.88c-4.87,8.76-11.59,15.61-20.13,20.56-8.55,4.95-18.26,7.42-29.14,7.42ZM1062.99,769.28c7.77,0,14.69-1.87,20.77-5.62,6.07-3.74,10.81-8.83,14.2-15.26,3.39-6.43,5.09-13.74,5.09-21.93s-1.7-15.47-5.09-21.83c-3.39-6.36-8.13-11.34-14.2-14.94-6.08-3.6-13-5.4-20.77-5.4s-14.73,1.8-20.87,5.4c-6.15,3.6-10.95,8.62-14.41,15.05-3.46,6.43-5.12,13.67-4.98,21.72-.14,8.19,1.52,15.51,4.98,21.93,3.46,6.43,8.26,11.52,14.41,15.26,6.15,3.74,13.1,5.62,20.87,5.62Z"/>
    <path class="cls-1" d="M1140.55,782.2v-110.62h15.89l.42,29.46-1.7-4.03c1.55-4.94,4.06-9.54,7.52-13.77,3.46-4.24,7.59-7.63,12.4-10.17,4.8-2.54,10.1-3.81,15.89-3.81,2.4,0,4.66.18,6.78.53,2.12.35,3.88.81,5.3,1.38l-4.45,17.8c-1.84-.85-3.71-1.45-5.62-1.8-1.91-.35-3.71-.53-5.4-.53-4.8,0-9.11.85-12.93,2.54-3.81,1.7-7.07,4.06-9.75,7.1-2.69,3.04-4.73,6.54-6.15,10.49-1.41,3.96-2.12,8.2-2.12,12.71v62.73h-16.11Z"/>
    <path class="cls-1" d="M1257.74,784.32c-10.03,0-19.04-2.47-27.02-7.42-7.98-4.94-14.27-11.76-18.86-20.45-4.59-8.69-6.89-18.54-6.89-29.56s2.33-21.08,6.99-29.77c4.66-8.69,10.95-15.5,18.86-20.45,7.91-4.94,16.81-7.42,26.7-7.42,5.51,0,10.84.85,16,2.54,5.16,1.7,9.78,4.06,13.88,7.1,4.1,3.04,7.49,6.5,10.17,10.38,2.68,3.89,4.31,7.95,4.87,12.18l-4.87-1.7v-74.38h15.89v156.81h-15.68l-.42-27.55,4.03-1.48c-.57,3.96-2.16,7.81-4.77,11.55-2.62,3.74-5.9,7.1-9.85,10.07-3.96,2.97-8.44,5.3-13.46,6.99-5.02,1.7-10.21,2.54-15.58,2.54ZM1260.07,769.7c7.34,0,13.91-1.83,19.71-5.51,5.79-3.67,10.35-8.76,13.67-15.26,3.32-6.5,4.98-13.91,4.98-22.25s-1.66-15.71-4.98-22.14c-3.32-6.43-7.88-11.51-13.67-15.26-5.79-3.74-12.36-5.62-19.71-5.62s-14.3,1.87-20.03,5.62c-5.72,3.74-10.24,8.83-13.56,15.26-3.32,6.43-4.98,13.81-4.98,22.14s1.62,15.54,4.87,22.04c3.25,6.5,7.77,11.62,13.56,15.36,5.79,3.74,12.5,5.62,20.13,5.62Z"/>
    <path class="cls-1" d="M1338.68,731.13v-15.89h59.76v15.89h-59.76Z"/>
    <path class="cls-1" d="M1470.91,782.2l-57.43-148.34h18.65l36.87,96.63c1.7,4.38,3.18,8.26,4.45,11.66,1.27,3.39,2.44,6.61,3.5,9.64,1.06,3.04,2.08,6.04,3.07,9.01.99,2.97,2.05,6.22,3.18,9.75l-5.51.21c1.41-4.8,2.79-9.25,4.13-13.35,1.34-4.1,2.75-8.3,4.24-12.61,1.48-4.31,3.35-9.36,5.62-15.15l36.66-95.78h18.65l-59.12,148.34h-16.95Z"/>
    <path class="cls-1" d="M1601.66,784.32c-11.02,0-20.8-2.4-29.35-7.21-8.55-4.8-15.22-11.51-20.03-20.13-4.8-8.62-7.2-18.51-7.2-29.67,0-8.62,1.34-16.42,4.03-23.42,2.68-6.99,6.46-13.1,11.34-18.33,4.87-5.22,10.7-9.29,17.48-12.18,6.78-2.89,14.13-4.34,22.04-4.34,7.49,0,14.3,1.34,20.45,4.03,6.15,2.69,11.44,6.39,15.89,11.13,4.45,4.73,7.8,10.35,10.07,16.85,2.26,6.5,3.25,13.64,2.97,21.4l-.21,7.42h-92.18l-2.33-13.35h82.43l-3.81,3.6v-5.09c-.28-5.09-1.77-9.99-4.45-14.73-2.69-4.73-6.46-8.58-11.34-11.55s-10.7-4.45-17.48-4.45c-7.91,0-14.76,1.59-20.56,4.77-5.79,3.18-10.24,7.88-13.35,14.09-3.11,6.22-4.66,13.92-4.66,23.1s1.7,16.35,5.09,22.78c3.39,6.43,8.23,11.41,14.52,14.94,6.28,3.53,13.88,5.3,22.78,5.3,5.22,0,10.42-.88,15.58-2.65,5.16-1.76,10.84-5.26,17.06-10.49l8.26,11.44c-3.25,3.25-7.14,6.11-11.66,8.58-4.52,2.47-9.47,4.45-14.83,5.93-5.37,1.48-10.88,2.23-16.53,2.23Z"/>
    <path class="cls-1" d="M1706.13,784.32c-9.47,0-17.94-1.77-25.43-5.3-7.49-3.53-13.42-8.19-17.8-13.99l11.23-9.75c4.1,4.95,8.93,8.69,14.52,11.23,5.58,2.54,11.83,3.81,18.75,3.81,3.53,0,6.71-.39,9.54-1.17,2.82-.77,5.3-1.94,7.42-3.5,2.12-1.55,3.74-3.39,4.87-5.51,1.13-2.12,1.7-4.45,1.7-6.99,0-4.66-2.05-8.55-6.15-11.65-1.84-1.27-4.45-2.58-7.84-3.92-3.39-1.34-7.49-2.65-12.29-3.92-7.91-2.26-14.48-4.56-19.71-6.89-5.23-2.33-9.32-5.05-12.29-8.16-2.12-2.54-3.71-5.3-4.77-8.26s-1.59-6.21-1.59-9.75c0-4.52.95-8.69,2.86-12.5,1.91-3.81,4.59-7.17,8.05-10.07,3.46-2.89,7.56-5.09,12.29-6.57,4.73-1.48,9.85-2.23,15.36-2.23,5.22,0,10.38.71,15.47,2.12,5.09,1.41,9.82,3.46,14.2,6.15,4.38,2.69,8.12,5.86,11.23,9.54l-9.75,10.6c-2.69-2.82-5.65-5.37-8.9-7.63-3.25-2.26-6.68-4.03-10.28-5.3-3.6-1.27-7.31-1.91-11.13-1.91-3.39,0-6.54.42-9.43,1.27-2.9.85-5.37,2.01-7.42,3.5-2.05,1.48-3.6,3.28-4.66,5.4-1.06,2.12-1.59,4.45-1.59,6.99,0,2.12.42,4.03,1.27,5.72.85,1.7,2.05,3.18,3.6,4.45,1.98,1.56,4.77,3,8.37,4.34,3.6,1.34,8.09,2.72,13.46,4.13,6.21,1.7,11.48,3.43,15.79,5.19,4.31,1.77,7.87,3.85,10.7,6.25,3.81,2.83,6.53,6.08,8.16,9.75,1.62,3.68,2.44,7.84,2.44,12.5,0,6.22-1.73,11.73-5.19,16.53-3.46,4.8-8.23,8.58-14.3,11.34-6.08,2.75-13,4.13-20.77,4.13Z"/>
    <path class="cls-1" d="M1759.53,686.84v-15.26h68.87v15.26h-68.87ZM1784.54,782.2v-139.65h15.89v139.65h-15.89Z"/>
  </g>
</svg>