<svg width="199" height="199" viewBox="38 23 122 122" fill="none" xmlns="http://www.w3.org/2000/svg">
<path d="M99.29 134.25C96.06 134.25 92.8 133.94 89.6 133.33C84.49 132.36 79.38 130.48 73.54 127.43C70.15 127.94 67.32 128.18 64.67 128.18C59.96 128.18 55.96 127.4 52.44 125.8C47.24 123.37 43.79 118.51 43.42 113.12C42.93 105.99 45.79 99.84 49.07 93.66L49.02 93.3C48.65 90.59 48.3 88.03 48.21 85.23C47.86 74.81 51.09 64.45 57.57 55.26C67.33 41.98 82.92 34.05 99.28 34.05C108.44 34.05 117.49 36.52 125.48 41.2C128.76 40.53 131.95 40.2 134.95 40.2C140.03 40.2 144.32 41.17 147.69 43.08C151.41 45.24 153.83 48.64 154.71 52.9C155.88 58.64 154.13 65.6 149.35 74.15C149.26 74.36 149.4 75.1 149.47 75.42C149.5 75.56 149.52 75.69 149.54 75.81C151.45 87.07 149.35 98.63 143.64 108.38C140.71 113.38 137.4 117.51 133.5 121.02C124.06 129.54 111.91 134.23 99.3 134.23L99.29 134.25ZM85.02 124.55C89.58 126.15 94.35 126.95 99.22 126.95C111.2 126.95 122.78 121.93 131.01 113.18C133.49 110.54 135.38 108.05 136.97 105.34C140.99 98.46 142.98 91.19 142.9 83.69C140.13 87.07 137.14 90.54 133.73 93.76L132.52 94.9L130.57 87.87L130.96 87.46C139.68 78.39 145.08 70.3 147.47 62.74C148.33 60.01 149.9 53.27 145.8 49.76C143.45 47.75 139.64 46.64 135.08 46.64C134.42 46.64 133.76 46.66 133.1 46.71C138.92 51.86 143.37 57.96 146.34 64.88L146.5 65.26L146.35 65.64C145.43 67.99 144.38 70.01 142.96 72.19L141.81 73.96L141.17 71.94C138.03 62 131.77 53.83 123.06 48.29C114.66 50.53 106.31 54.05 97.56 59.05L97.15 59.28L89.54 56.45L91.27 55.37C98.7 50.75 106.37 47.03 114.63 44.05C109.72 42.23 104.57 41.31 99.28 41.31C89.92 41.31 80.98 44.19 73.44 49.64C61.98 57.92 55.43 70.69 55.6 84.17L62.95 75.74L62.39 85.94L58.32 91.29C54.76 95.96 48.48 106.72 50.2 114.05C50.79 116.58 52.28 118.4 54.73 119.61C57.53 120.99 61 121.69 65.05 121.69C76.14 121.69 89.59 116.49 98.47 111.63L102.81 109.25C103.35 108.95 103.91 108.64 104.48 108.48L104.81 108.39L105.13 108.52C106.89 109.23 108.37 109.58 110.63 110.02L113.06 110.49L110.99 111.84C103 117.05 94.48 121.21 85.03 124.52L85.02 124.55Z" fill="#3491DB"/>
<path d="M85.12 110.05C84.3 110.05 83.48 110 82.66 109.9C78.98 109.46 76.01 108.37 73.32 106.48C62.01 98.53 60.42 81.87 65.41 70.35C67.61 65.27 71.21 61.34 75.81 58.99C78.8 57.46 82.2 56.66 85.65 56.66C90.31 56.66 95.01 58.13 98.86 60.81L99.67 61.37L99.12 62.19C98.07 63.75 97.3 65.34 96.61 67.35L96.15 68.7L95.04 67.81C92.3 65.63 89.09 64.48 85.75 64.48C80.93 64.48 76.67 66.87 74.05 71.04C71.86 74.52 70.76 78.71 70.79 83.47C70.81 87.47 71.42 90.65 72.7 93.45C75.2 98.92 79.81 102.19 85.04 102.19C85.62 102.19 86.22 102.15 86.81 102.07C91.4 101.46 95.27 98.15 96.43 93.82C96.66 92.95 96.6 91.99 96.53 90.98C96.49 90.46 96.46 89.93 96.46 89.39L82.2 89.37L82.17 81.83L97.38 81.87L104.25 81.97L104.13 95.26C104.12 96.53 103.41 97.79 102.79 98.91C102.65 99.17 102.51 99.41 102.39 99.65C99.1 106.06 92.48 110.04 85.12 110.04V110.05Z" fill="#3491DB"/>
<path d="M113.57 110.02C108.08 109.91 103.44 108.32 99.78 105.29L99.02 104.66L99.64 103.89C100.86 102.39 101.89 100.91 102.88 99.25L103.49 98.22L104.39 99.01C106.77 101.08 110.34 102.32 113.94 102.32C116.57 102.32 119 101.64 120.79 100.39C122.42 99.25 123.48 97.48 123.68 95.52C123.88 93.61 123.28 91.79 121.97 90.4C120.96 89.32 119.57 88.41 118.05 87.85L107.56 83.95C104.23 82.71 101.81 81.27 99.94 79.4C97.45 76.91 96.17 73.56 96.35 69.97C96.53 66.27 98.27 62.82 101.12 60.48C104.22 57.95 108.25 56.65 113.11 56.62H113.24C121.23 56.62 127.49 60.26 130.88 66.87L131.28 67.66L124.6 72.16L124.11 71.08C122.23 66.92 118.55 64.46 114.02 64.32C113.79 64.32 113.57 64.31 113.34 64.31C110.64 64.31 108.62 64.85 106.96 66.01C105.58 66.98 104.7 68.41 104.55 69.93C104.24 73.06 106.13 75.07 111.07 76.86L120.43 80.25C123.87 81.5 126.51 83.17 128.5 85.37C130.82 87.93 131.98 91.47 131.76 95.34C131.54 99.33 129.86 103.07 127.26 105.37C123.77 108.45 119.35 110.01 114.1 110.01C113.91 110.01 113.72 110.01 113.54 110.01L113.57 110.02Z" fill="#3491DB"/>
<path d="M65.54 121.37C62.4 118.72 60 115.8 57.87 113.03C55.42 109.85 53.7 106.36 52.16 103.05L51.97 102.64L52.15 102.22C53.25 99.75 54.29 97.76 55.54 95.79L56.67 94.01L57.33 96.02C60.43 105.39 65.85 112.89 73.9 118.95L75.63 120.25L73.52 120.72C71.15 121.25 68.91 121.43 66.24 121.6L65.84 121.63L65.53 121.37H65.54Z" fill="#3491DB"/>
</svg>
