<svg width="199" height="199" viewBox="0 0 199 199" fill="none" xmlns="http://www.w3.org/2000/svg">
<path d="M99.29 134.25C96.06 134.25 92.8 133.94 89.6 133.33C84.49 132.36 79.38 130.48 73.54 127.43C70.15 127.94 67.32 128.18 64.67 128.18C59.96 128.18 55.96 127.4 52.44 125.8C47.24 123.37 43.79 118.51 43.42 113.12C42.93 105.99 45.79 99.84 49.07 93.66L49.02 93.3C48.65 90.59 48.3 88.03 48.21 85.23C47.86 74.81 51.09 64.45 57.57 55.26C67.33 41.98 82.92 34.05 99.28 34.05C108.44 34.05 117.49 36.52 125.48 41.2C128.76 40.53 131.95 40.2 134.95 40.2C140.03 40.2 144.32 41.17 147.69 43.08C151.41 45.24 153.83 48.64 154.71 52.9C155.88 58.64 154.13 65.6 149.35 74.15C149.26 74.36 149.4 75.1 149.47 75.42C149.5 75.56 149.52 75.69 149.54 75.81C151.45 87.07 149.35 98.63 143.64 108.38C140.71 113.38 137.4 117.51 133.5 121.02C124.06 129.54 111.91 134.23 99.3 134.23L99.29 134.25ZM85.02 124.55C89.58 126.15 94.35 126.95 99.22 126.95C111.2 126.95 122.78 121.93 131.01 113.18C133.49 110.54 135.38 108.05 136.97 105.34C140.99 98.46 142.98 91.19 142.9 83.69C140.13 87.07 137.14 90.54 133.73 93.76L132.52 94.9L130.57 87.87L130.96 87.46C139.68 78.39 145.08 70.3 147.47 62.74C148.33 60.01 149.9 53.27 145.8 49.76C143.45 47.75 139.64 46.64 135.08 46.64C134.42 46.64 133.76 46.66 133.1 46.71C138.92 51.86 143.37 57.96 146.34 64.88L146.5 65.26L146.35 65.64C145.43 67.99 144.38 70.01 142.96 72.19L141.81 73.96L141.17 71.94C138.03 62 131.77 53.83 123.06 48.29C114.66 50.53 106.31 54.05 97.56 59.05L97.15 59.28L89.54 56.45L91.27 55.37C98.7 50.75 106.37 47.03 114.63 44.05C109.72 42.23 104.57 41.31 99.28 41.31C89.92 41.31 80.98 44.19 73.44 49.64C61.98 57.92 55.43 70.69 55.6 84.17L62.95 75.74L62.39 85.94L58.32 91.29C54.76 95.96 48.48 106.72 50.2 114.05C50.79 116.58 52.28 118.4 54.73 119.61C57.53 120.99 61 121.69 65.05 121.69C76.14 121.69 89.59 116.49 98.47 111.63L102.81 109.25C103.35 108.95 103.91 108.64 104.48 108.48L104.81 108.39L105.13 108.52C106.89 109.23 108.37 109.58 110.63 110.02L113.06 110.49L110.99 111.84C103 117.05 94.48 121.21 85.03 124.52L85.02 124.55Z" fill="#3491DB"/>
<path d="M99.27 35.07C108.14 35.07 117.12 37.41 125.29 42.28C128.32 41.64 131.64 41.22 134.94 41.22C139.32 41.22 143.66 41.97 147.19 43.97C150.65 45.98 152.91 49.17 153.72 53.12C155.12 59.95 151.79 67.74 148.47 73.69C148.14 74.28 148.43 75.33 148.55 76C150.41 86.94 148.39 98.32 142.77 107.9C140.08 112.49 136.87 116.66 132.83 120.3C123.44 128.77 111.57 133.25 99.3 133.25C96.15 133.25 92.97 132.95 89.8 132.35C84.08 131.27 78.86 129.1 73.73 126.39C70.75 126.85 67.7 127.18 64.69 127.18C60.61 127.18 56.59 126.58 52.88 124.89C48.17 122.68 44.8 118.29 44.44 113.05C43.95 105.99 46.88 99.94 50.13 93.85C49.73 90.93 49.33 88.18 49.23 85.21C48.87 74.61 52.29 64.53 58.41 55.85C68.33 42.36 83.65 35.07 99.3 35.07M54.71 86.75L61.79 78.63L61.4 85.61L57.51 90.71C52.21 97.66 42.96 114.95 54.27 120.53C57.4 122.07 61.08 122.72 65.03 122.72C76.64 122.72 90.49 117.15 98.93 112.54L103.05 110.28C103.6 109.98 104.2 109.62 104.74 109.47C106.65 110.24 108.27 110.61 110.43 111.02C101.64 116.75 92.21 121.16 82.08 124.47C87.62 126.8 93.44 127.93 99.22 127.93C111.28 127.93 123.12 123.01 131.74 113.85C134.07 111.38 136.08 108.82 137.83 105.83C142.22 98.32 144.44 89.89 143.79 80.99C140.38 85.23 136.98 89.3 133.04 93.01L131.69 88.13C138.42 81.12 145.46 72.41 148.43 63.01C149.88 58.43 150.43 52.36 146.45 48.97C143.61 46.55 139.25 45.61 135.08 45.61C133.57 45.61 132.08 45.73 130.7 45.95C137.18 51.22 142.15 57.61 145.43 65.25C144.54 67.52 143.51 69.5 142.13 71.62C138.89 61.37 132.35 52.88 123.23 47.19C113.99 49.61 105.35 53.43 97.07 58.16L91.81 56.21C99.82 51.22 108.25 47.23 117.48 44.11C111.66 41.56 105.46 40.31 99.3 40.31C89.95 40.31 80.67 43.19 72.87 48.83C60.85 57.52 53.63 71.7 54.72 86.72M99.27 33.07C82.59 33.07 66.7 41.14 56.76 54.67C50.13 64.07 46.83 74.64 47.19 85.28C47.29 88.13 47.64 90.71 48.01 93.45V93.49C44.73 99.71 41.9 105.92 42.4 113.2C42.8 118.95 46.47 124.13 51.99 126.71C55.66 128.38 59.79 129.19 64.65 129.19C67.27 129.19 70.05 128.96 73.35 128.48C79.16 131.49 84.28 133.35 89.4 134.33C92.66 134.95 95.99 135.26 99.28 135.26C112.14 135.26 124.52 130.48 134.15 121.8C138.12 118.22 141.5 114.01 144.48 108.92C150.31 98.97 152.45 87.16 150.5 75.68C150.48 75.55 150.45 75.41 150.42 75.27C150.38 75.06 150.31 74.7 150.3 74.5C155.13 65.81 156.88 58.69 155.67 52.74C154.74 48.19 152.15 44.56 148.19 42.26C144.64 40.25 140.19 39.24 134.94 39.24C131.98 39.24 128.86 39.56 125.64 40.19C117.59 35.54 108.49 33.09 99.27 33.09V33.07ZM56.67 81.47C57.36 69.33 63.62 58.01 74.04 50.48C81.41 45.15 90.14 42.33 99.3 42.33C103.52 42.33 107.65 42.93 111.64 44.12C104.32 46.95 97.44 50.38 90.75 54.54L87.29 56.69L91.11 58.11L96.37 60.06L97.25 60.39L98.06 59.93C106.59 55.06 114.73 51.6 122.9 49.38C131.21 54.79 137.2 62.68 140.22 72.25L140.76 73.97C138.06 78.02 134.56 82.26 130.24 86.76L129.45 87.58L129.75 88.68L131.1 93.56L131.99 96.76L134.4 94.48C137.11 91.92 139.55 89.22 141.82 86.54C141.43 92.85 139.51 98.99 136.1 104.83C134.55 107.47 132.7 109.91 130.28 112.49C122.24 121.04 110.92 125.94 99.22 125.94C95.45 125.94 91.75 125.45 88.15 124.46C96.57 121.3 104.26 117.43 111.52 112.69L115.67 109.99L110.81 109.05C108.6 108.62 107.17 108.29 105.49 107.61L104.86 107.36L104.21 107.54C103.52 107.73 102.87 108.09 102.31 108.4L102.1 108.52L97.98 110.78C89.21 115.58 75.95 120.72 65.05 120.72C61.16 120.72 57.84 120.05 55.18 118.74C53.01 117.67 51.71 116.07 51.18 113.84C49.66 107.38 55.1 97.19 59.12 91.92L63.01 86.82L63.38 86.33L63.41 85.72L63.8 78.74L64.12 72.93L60.29 77.32L56.67 81.47ZM146.45 62.68C143.79 57.09 140.15 52.06 135.59 47.65C139.63 47.73 143.1 48.77 145.15 50.52C148.8 53.64 147.32 59.89 146.52 62.44C146.49 62.52 146.47 62.6 146.44 62.68H146.45Z" fill="white"/>
<path d="M85.12 110.05C84.3 110.05 83.48 110 82.66 109.9C78.98 109.46 76.01 108.37 73.32 106.48C62.01 98.53 60.42 81.87 65.41 70.35C67.61 65.27 71.21 61.34 75.81 58.99C78.8 57.46 82.2 56.66 85.65 56.66C90.31 56.66 95.01 58.13 98.86 60.81L99.67 61.37L99.12 62.19C98.07 63.75 97.3 65.34 96.61 67.35L96.15 68.7L95.04 67.81C92.3 65.63 89.09 64.48 85.75 64.48C80.93 64.48 76.67 66.87 74.05 71.04C71.86 74.52 70.76 78.71 70.79 83.47C70.81 87.47 71.42 90.65 72.7 93.45C75.2 98.92 79.81 102.19 85.04 102.19C85.62 102.19 86.22 102.15 86.81 102.07C91.4 101.46 95.27 98.15 96.43 93.82C96.66 92.95 96.6 91.99 96.53 90.98C96.49 90.46 96.46 89.93 96.46 89.39L82.2 89.37L82.17 81.83L97.38 81.87L104.25 81.97L104.13 95.26C104.12 96.53 103.41 97.79 102.79 98.91C102.65 99.17 102.51 99.41 102.39 99.65C99.1 106.06 92.48 110.04 85.12 110.04V110.05Z" fill="#3491DB"/>
<path d="M85.65 57.66C90.1 57.66 94.56 59.04 98.29 61.63C97.07 63.45 96.3 65.17 95.66 67.03C92.67 64.65 89.17 63.48 85.75 63.48C80.86 63.48 76.12 65.86 73.2 70.51C70.76 74.4 69.76 78.85 69.79 83.48C69.81 87.12 70.29 90.57 71.79 93.87C74.28 99.32 79.04 103.2 85.04 103.2C85.66 103.2 86.3 103.16 86.94 103.07C91.79 102.43 96.11 98.87 97.4 94.09C97.89 92.28 97.29 90.37 97.52 88.4L83.2 88.38L83.18 82.85L97.38 82.89L103.25 82.98L103.14 95.28C103.13 96.57 102.1 98.07 101.51 99.22C98.3 105.48 91.96 109.06 85.13 109.06C84.36 109.06 83.58 109.01 82.79 108.92C79.51 108.53 76.64 107.6 73.9 105.68C63.25 98.19 61.35 82.26 66.33 70.77C68.36 66.07 71.71 62.23 76.27 59.9C79.21 58.4 82.43 57.68 85.65 57.68M85.65 55.66C82.05 55.66 78.49 56.5 75.36 58.1C70.55 60.56 66.79 64.66 64.49 69.95C59.34 81.83 61.02 99.05 72.75 107.29C75.58 109.28 78.7 110.42 82.55 110.88C83.4 110.98 84.27 111.03 85.13 111.03C92.87 111.03 99.83 106.84 103.29 100.1C103.4 99.88 103.54 99.64 103.67 99.39C104.32 98.23 105.12 96.79 105.13 95.26L105.24 82.96L105.26 80.97L103.27 80.94L97.4 80.85L83.18 80.81H81.17V82.82L81.19 88.35V90.34H83.19L95.49 90.36C95.5 90.59 95.52 90.81 95.53 91.02C95.6 91.99 95.65 92.83 95.46 93.53C94.41 97.41 90.8 100.51 86.67 101.05C86.12 101.12 85.57 101.16 85.03 101.16C80.2 101.16 75.93 98.11 73.6 93C72.38 90.33 71.8 87.29 71.78 83.43C71.75 78.86 72.8 74.86 74.88 71.54C77.31 67.67 81.27 65.45 85.74 65.45C88.85 65.45 91.85 66.53 94.41 68.57L96.63 70.34L97.55 67.65C98.2 65.73 98.94 64.21 99.94 62.73L101.04 61.09L99.42 59.96C95.4 57.17 90.51 55.63 85.64 55.63L85.65 55.66Z" fill="white"/>
<path d="M113.57 110.02C108.08 109.91 103.44 108.32 99.78 105.29L99.02 104.66L99.64 103.89C100.86 102.39 101.89 100.91 102.88 99.25L103.49 98.22L104.39 99.01C106.77 101.08 110.34 102.32 113.94 102.32C116.57 102.32 119 101.64 120.79 100.39C122.42 99.25 123.48 97.48 123.68 95.52C123.88 93.61 123.28 91.79 121.97 90.4C120.96 89.32 119.57 88.41 118.05 87.85L107.56 83.95C104.23 82.71 101.81 81.27 99.94 79.4C97.45 76.91 96.17 73.56 96.35 69.97C96.53 66.27 98.27 62.82 101.12 60.48C104.22 57.95 108.25 56.65 113.11 56.62H113.24C121.23 56.62 127.49 60.26 130.88 66.87L131.28 67.66L124.6 72.16L124.11 71.08C122.23 66.92 118.55 64.46 114.02 64.32C113.79 64.32 113.57 64.31 113.34 64.31C110.64 64.31 108.62 64.85 106.96 66.01C105.58 66.98 104.7 68.41 104.55 69.93C104.24 73.06 106.13 75.07 111.07 76.86L120.43 80.25C123.87 81.5 126.51 83.17 128.5 85.37C130.82 87.93 131.98 91.47 131.76 95.34C131.54 99.33 129.86 103.07 127.26 105.37C123.77 108.45 119.35 110.01 114.1 110.01C113.91 110.01 113.72 110.01 113.54 110.01L113.57 110.02Z" fill="#3491DB"/>
<path d="M113.25 57.63C120.56 57.63 126.62 60.74 130 67.34L125.04 70.69C122.99 66.16 118.96 63.49 114.07 63.34C113.83 63.34 113.6 63.33 113.36 63.33C110.86 63.33 108.47 63.77 106.41 65.21C104.79 66.34 103.76 68.02 103.58 69.85C103.14 74.34 106.87 76.41 110.76 77.82L120.12 81.21C123.03 82.26 125.71 83.76 127.79 86.06C132.57 91.35 131.31 100.51 126.63 104.64C123.06 107.79 118.74 109.03 114.14 109.03C113.96 109.03 113.78 109.03 113.6 109.03C108.76 108.93 104.15 107.61 100.42 104.53C101.66 102.99 102.71 101.5 103.74 99.78C106.36 102.06 110.21 103.33 113.95 103.33C116.66 103.33 119.3 102.66 121.37 101.22C125.19 98.56 125.91 93.14 122.72 89.72C121.56 88.48 120.02 87.51 118.42 86.92L107.93 83.02C105.27 82.03 102.7 80.73 100.67 78.7C95.76 73.8 96.46 65.62 101.78 61.27C105 58.63 108.98 57.66 113.14 57.64C113.18 57.64 113.23 57.64 113.27 57.64M113.25 55.63H113.11C108.02 55.66 103.77 57.03 100.49 59.71C97.42 62.22 95.55 65.94 95.35 69.92C95.16 73.8 96.54 77.41 99.23 80.1C101.2 82.07 103.74 83.59 107.21 84.88L117.7 88.78C119.07 89.29 120.33 90.11 121.23 91.07C122.33 92.25 122.85 93.79 122.68 95.41C122.5 97.08 121.6 98.6 120.21 99.57C118.59 100.7 116.36 101.32 113.94 101.32C110.57 101.32 107.24 100.18 105.04 98.26L103.24 96.69L102.01 98.74C101.04 100.36 100.04 101.8 98.85 103.26L97.6 104.8L99.13 106.06C102.97 109.23 107.82 110.9 113.54 111.01C113.74 111.01 113.93 111.01 114.13 111.01C119.62 111.01 124.27 109.36 127.95 106.12C130.74 103.65 132.55 99.65 132.79 95.4C133.02 91.26 131.77 87.46 129.27 84.7C127.17 82.38 124.4 80.61 120.8 79.31L111.44 75.92C106.96 74.3 105.31 72.65 105.57 70.03C105.69 68.8 106.42 67.64 107.56 66.83C109.04 65.79 110.89 65.31 113.37 65.31C113.58 65.31 113.8 65.31 114.02 65.32C118.16 65.45 121.51 67.7 123.23 71.5L124.21 73.66L126.18 72.33L131.14 68.98L132.61 67.99L131.8 66.41C128.24 59.45 121.65 55.61 113.27 55.61L113.25 55.63Z" fill="white"/>
<path d="M65.54 121.37C62.4 118.72 60 115.8 57.87 113.03C55.42 109.85 53.7 106.36 52.16 103.05L51.97 102.64L52.15 102.22C53.25 99.75 54.29 97.76 55.54 95.79L56.67 94.01L57.33 96.02C60.43 105.39 65.85 112.89 73.9 118.95L75.63 120.25L73.52 120.72C71.15 121.25 68.91 121.43 66.24 121.6L65.84 121.63L65.53 121.37H65.54Z" fill="#3491DB"/>
<path d="M56.4 96.33C59.57 105.92 65.24 113.66 73.32 119.75C71 120.27 68.78 120.44 66.2 120.61C63.27 118.13 60.98 115.41 58.68 112.43C56.35 109.41 54.71 106.13 53.09 102.64C54.07 100.42 55.09 98.42 56.41 96.34M56.97 91.69L54.71 95.26C53.43 97.28 52.36 99.3 51.25 101.82L50.88 102.65L51.27 103.47C52.84 106.82 54.58 110.37 57.09 113.63C59.25 116.44 61.7 119.41 64.9 122.12L65.52 122.64L66.32 122.59C69.03 122.41 71.3 122.24 73.75 121.69L77.97 120.74L74.51 118.14C66.63 112.2 61.32 104.86 58.29 95.69L56.96 91.68L56.97 91.69Z" fill="white"/>
</svg>
