<?xml version="1.0" encoding="UTF-8"?>
<svg id="Layer_4" data-name="Layer 4" xmlns="http://www.w3.org/2000/svg" viewBox="0 0 198.43 198.43">
  <defs>
    <style>
      .cls-1 {
        fill: #231f20;
      }

      .cls-2 {
        fill: #3491db;
      }

      .cls-3 {
        fill: #fff;
      }
    </style>
  </defs>
  <g>
    <g>
      <path class="cls-3" d="M186.95,163.87v-5.24s-3.59-5.96-3.59-5.96l-.04.29-4.05.04v10.86s-3.96-.02-3.96-.02l-.02-10.8h-3.75s-.17-.51-.17-.51c-.22-.63-.26-1.57-.11-2.51l.1-.63,14.49.03,3.24,5.44,3.27-5.45,4.13.12-5.51,9.22-.04,5.14h-3.98Z"/>
      <path class="cls-1" d="M171.99,150.13l13.42.02,3.66,6.16,3.69-6.15,2.42.07-4.96,8.3-.04,4.6h-2.48s.01-4.7.01-4.7l-4.8-7.95-.24,1.74-4.15.04v10.85s-2.46-.01-2.46-.01l-.02-10.81h-3.97c-.19-.55-.2-1.4-.08-2.15M170.71,148.62l-.2,1.27c-.08.51-.23,1.8.14,2.87l.35,1.01h1.07s2.47,0,2.47,0v9.31s.02,1.49.02,1.49h1.49s2.46.02,2.46.02h1.51s0-1.5,0-1.5v-9.36s2.67-.02,2.67-.02h.43s3.1,5.13,3.1,5.13v4.28s-.01,1.5-.01,1.5h1.5s2.48,0,2.48,0h1.49s.01-1.49.01-1.49l.04-4.19,4.75-7.95,1.31-2.19-2.55-.08-2.42-.07-.88-.03-.45.75-2.4,4-2.38-4-.44-.73h-.85s-13.42-.02-13.42-.02h-1.28Z"/>
    </g>
    <g>
      <path class="cls-3" d="M29.52,163.77l-.02-14.4,3.29.09,5.63,7.14.06-7.23,3.89.06.03,14.29-.65.09c-.3.04-.64.06-1,.06s-.87-.02-1.37-.12l-.27-.05-5.62-7.08-.07,7.32-3.91-.16Z"/>
      <path class="cls-1" d="M39.23,150.13l2.4.04.03,12.9c-.27.04-.58.06-.9.06-.42,0-.86-.03-1.22-.11l-6.77-8.53-.09,8.66-2.42-.1v-12.91s2.16.06,2.16.06l6.74,8.54.08-8.6M28.75,148.6v1.54s.02,12.91.02,12.91v1.44s1.44.06,1.44.06l2.42.1,1.54.06.02-1.54.05-4.43,4.14,5.21.34.43.54.11c.56.11,1.13.13,1.52.13s.77-.02,1.1-.07l1.3-.18v-1.31s-.03-12.9-.03-12.9v-1.47s-1.48-.02-1.48-.02l-2.4-.04-1.51-.02v1.51s-.05,4.34-.05,4.34l-4.1-5.19-.44-.55-.7-.02-2.17-.06-1.54-.04h0Z"/>
    </g>
    <g>
      <path class="cls-3" d="M159.51,160.03h-2.06s0,3.77,0,3.77l-.71.03c-.35.02-.7.02-1.05.02-.53,0-1.05-.02-1.56-.06l-.69-.05v-14.38s6.96.06,6.96.06c2.83.03,5.16,2.27,5.31,5.12.11,1.97-.76,3.61-2.36,4.54l3.24,4.73-4.49.06-2.58-3.83ZM157.81,156.46c.79,0,1.64,0,2.53-.08.37-.03.69-.19.94-.49.3-.35.46-.85.42-1.3-.08-.98-.62-1.63-2.98-1.63-.42,0-.83.02-1.22.04-.02,0-.05,0-.07,0v3.46s.37,0,.37,0Z"/>
      <path class="cls-1" d="M154.18,150.11l6.19.06c2.5.02,4.44,1.99,4.57,4.41.11,1.97-.9,3.52-2.72,4.2l2.94,4.29-2.68.03-2.58-3.83h-3.21s0,3.8,0,3.8c-.34.02-.68.02-1.02.02-.5,0-1.01-.02-1.5-.06v-12.93M157.82,157.21c.84,0,1.7-.01,2.59-.08,1.4-.11,2.14-1.49,2.05-2.6-.17-2.01-1.96-2.32-3.73-2.32-.72,0-1.44.05-2.04.06v4.94c.38,0,.75,0,1.13,0M152.68,148.6v1.51s-.01,12.93-.01,12.93v1.39s1.38.11,1.38.11c.52.04,1.06.06,1.62.06.36,0,.72,0,1.09-.02l1.43-.06v-1.43s0-2.3,0-2.3h.92s2.13,3.16,2.13,3.16l.45.67h.81s2.68-.04,2.68-.04l2.81-.03-1.59-2.31-2.03-2.96c1.4-1.12,2.17-2.83,2.06-4.77-.17-3.24-2.83-5.8-6.05-5.82l-6.19-.06h-1.51ZM158.19,153.71c.18,0,.36,0,.54,0,2.15,0,2.2.53,2.23.95.02.24-.08.55-.25.75-.16.19-.32.22-.43.23-.73.06-1.43.07-2.09.08v-1.99h0Z"/>
    </g>
    <g>
      <polygon class="cls-3" points="17.31 163.86 17.28 149.38 28.18 149.38 28.16 152.97 21.28 152.97 21.26 154.69 27.25 154.73 27.37 158.23 21.29 158.27 21.28 160.23 28.43 160.27 28.46 163.87 17.31 163.86"/>
      <path class="cls-1" d="M27.43,150.13v2.09s-6.89,0-6.89,0l-.03,3.22,6.02.04.07,2.01-6.05.04-.03,3.46,7.17.04.02,2.1h-9.65s-.03-12.98-.03-12.98h9.39M28.93,148.63h-1.51s-9.39,0-9.39,0h-1.5s0,1.5,0,1.5l.03,12.98v1.5s1.5,0,1.5,0h9.65s1.51,0,1.51,0v-1.51s-.03-2.1-.03-2.1v-1.48s-1.49,0-1.49,0l-5.66-.03v-.47s4.57-.03,4.57-.03h1.54s-.05-1.55-.05-1.55l-.07-2.01-.05-1.44h-1.44s-4.52-.04-4.52-.04v-.23s5.4,0,5.4,0h1.49s0-1.49,0-1.49v-2.09s.02-1.51.02-1.51h0Z"/>
    </g>
    <g>
      <polygon class="cls-3" points="113.67 163.87 113.64 149.38 124.56 149.38 124.56 152.96 117.67 152.96 117.67 154.68 123.75 154.74 123.78 158.23 117.67 158.26 117.68 160.22 124.87 160.24 124.89 163.87 113.67 163.87"/>
      <path class="cls-1" d="M123.81,150.13v2.09s-6.89,0-6.89,0v3.21s6.08.06,6.08.06l.02,2-6.11.03v3.46s7.2.02,7.2.02v2.13s-9.71,0-9.71,0l-.03-12.98h9.42M125.31,148.63h-1.5s-9.42,0-9.42,0h-1.5s0,1.5,0,1.5l.03,12.98v1.5s1.5,0,1.5,0h9.72s1.51,0,1.51,0v-1.51s-.02-2.13-.02-2.13v-1.49s-1.5,0-1.5,0h-5.7s0-.48,0-.48l4.61-.02h1.51s-.02-1.52-.02-1.52l-.02-2-.02-1.47h-1.47s-4.6-.06-4.6-.06v-.22s5.39,0,5.39,0h1.5s0-1.5,0-1.5v-2.09s0-1.5,0-1.5h0Z"/>
    </g>
    <g>
      <polygon class="cls-3" points="44.13 163.86 44.14 149.37 55 149.38 55.02 152.96 48.14 152.97 48.14 154.69 54.21 154.73 54.26 158.22 48.14 158.27 48.12 160.21 55.36 160.24 55.24 163.87 44.13 163.86"/>
      <path class="cls-1" d="M44.89,150.13h9.37s0,2.08,0,2.08h-6.87s0,3.22,0,3.22l6.08.04.03,2-6.1.05-.03,3.44,7.22.03-.07,2.14-9.63-.02v-12.98M43.39,148.62v1.5s0,12.98,0,12.98v1.5s1.5,0,1.5,0l9.63.02h1.45s.05-1.45.05-1.45l.07-2.14.05-1.55h-1.55s-5.71-.03-5.71-.03v-.45s4.63-.03,4.63-.03h1.51s-.02-1.52-.02-1.52l-.03-2-.02-1.47h-1.47s-4.59-.04-4.59-.04v-.23s5.37,0,5.37,0h1.5s0-1.5,0-1.5v-2.07s-.01-1.49-.01-1.49h-1.49s-9.37,0-9.37,0h-1.5Z"/>
    </g>
    <g>
      <path class="cls-3" d="M10.22,164.08c-1.49,0-2.95-.39-4.22-1.12-1.85-1.07-3.18-3.13-3.46-5.4-.32-2.54.59-4.99,2.41-6.53,1.44-1.22,3.28-1.89,5.19-1.89,2.14,0,4.13.82,5.59,2.3l.51.52-2.56,2.67-.54-.53c-.84-.81-1.9-1.26-2.98-1.26-.74,0-1.46.21-2.09.62-1.03.66-1.6,1.88-1.55,3.34.03,1.03.53,2.38,1.8,3.08.57.32,1.2.48,1.86.48.61,0,1.24-.13,1.87-.4v-4.22s3.81.12,3.81.12v6.03s-.26.22-.26.22c-1.46,1.26-3.38,1.95-5.38,1.95Z"/>
      <path class="cls-1" d="M10.15,149.9c1.85,0,3.69.69,5.06,2.07l-1.54,1.6c-.99-.96-2.25-1.48-3.51-1.48-.86,0-1.72.24-2.5.74-1.39.89-1.95,2.45-1.89,4,.05,1.42.78,2.93,2.19,3.71.7.39,1.45.57,2.23.57.87,0,1.76-.23,2.62-.67v-3.93s2.31.07,2.31.07v4.96c-1.36,1.17-3.12,1.77-4.9,1.77-1.32,0-2.65-.33-3.84-1.02-1.82-1.05-2.86-3.02-3.09-4.84-.27-2.2.46-4.44,2.15-5.87,1.35-1.14,3.03-1.71,4.71-1.71M10.15,148.4c-2.09,0-4.1.73-5.68,2.06-2.02,1.71-3.02,4.4-2.67,7.2.31,2.49,1.78,4.77,3.83,5.95,1.38.8,2.97,1.22,4.59,1.22,2.19,0,4.27-.76,5.87-2.13l.52-.45v-.69s0-4.96,0-4.96v-1.45s-1.45-.05-1.45-.05l-.85-.03.44-.46,1.54-1.6,1.01-1.06-1.03-1.04c-1.61-1.62-3.78-2.52-6.13-2.52h0ZM10.19,159.62c-.54,0-1.04-.13-1.5-.38-1-.56-1.39-1.67-1.42-2.45-.02-.56.06-1.96,1.2-2.69.52-.33,1.09-.5,1.69-.5.89,0,1.77.37,2.46,1.05l.4.39h-.16s-1.55-.05-1.55-.05v1.55s0,2.92,0,2.92c-.38.12-.76.17-1.13.17h0Z"/>
    </g>
    <g>
      <path class="cls-3" d="M145.22,164.08c-3.54-.14-6.12-2.64-6.13-5.95l-.05-8.73h3.97s.07,8.5.07,8.5c.01,1.42.95,2.41,2.33,2.46h.11c1.38,0,2.32-.99,2.33-2.47l.03-8.48h3.93s-.04,8.86-.04,8.86c-.01,3.32-2.7,5.82-6.25,5.82-.1,0-.2,0-.3,0Z"/>
      <path class="cls-1" d="M151.05,150.15l-.03,8.12c-.01,3.1-2.56,5.07-5.49,5.07-.09,0-.18,0-.27,0-2.96-.12-5.4-2.09-5.41-5.2l-.04-7.97h2.47s.06,7.75.06,7.75c.01,1.89,1.35,3.14,3.05,3.2.04,0,.09,0,.13,0,1.74,0,3.07-1.28,3.08-3.22l.03-7.73h2.43M152.55,148.65h-1.51s-2.43.01-2.43.01h-1.49s0,1.49,0,1.49l-.03,7.73c0,1.07-.61,1.73-1.58,1.73h-.08c-.97-.04-1.6-.71-1.6-1.71l-.06-7.75v-1.49s-1.5,0-1.5,0h-2.47s-1.51,0-1.51,0v1.51s.05,7.97.05,7.97c.02,3.72,2.9,6.53,6.85,6.69.11,0,.22,0,.33,0,3.97,0,6.98-2.82,6.99-6.56l.03-8.12v-1.51h0Z"/>
    </g>
    <g>
      <path class="cls-3" d="M66.38,164.11c-1.92,0-3.81-.63-5.47-1.83l-.49-.36,1.55-3.47.77.68c.81.71,2.6,1.3,3.99,1.3.75,0,1.66-.15,1.76-.87-.01-.16-.32-.58-.51-.64l-4.04-1.14c-1.73-.49-3-2.02-3.09-3.72-.1-1.77.91-3.4,2.55-4.16,1.07-.49,2.22-.74,3.43-.74,1.57,0,3.15.43,4.58,1.24l.54.31-.2.59c-.26.77-.53,1.42-.84,2.07l-.38.78-.72-.48c-.76-.5-2.07-.86-3.21-.86-.42,0-1.77.06-1.82.82.02.15.33.57.49.63l4.03,1.14c1.67.47,2.94,1.93,3.09,3.55.17,1.89-.82,3.62-2.53,4.41-1.1.5-2.27.75-3.48.75Z"/>
      <path class="cls-1" d="M66.82,149.91c1.45,0,2.9.4,4.21,1.14-.26.75-.52,1.38-.81,1.98-.89-.59-2.35-.98-3.62-.98-1.35,0-2.5.43-2.57,1.52-.03.44.54,1.26,1.03,1.4l4.04,1.14c1.41.4,2.43,1.65,2.55,2.89.13,1.46-.58,2.96-2.09,3.65-1.02.47-2.1.69-3.17.69-1.77,0-3.53-.6-5.03-1.69l.89-1.98c.93.82,2.88,1.48,4.49,1.48,1.28,0,2.34-.42,2.5-1.51.07-.48-.49-1.31-1.05-1.46l-4.04-1.14c-1.47-.42-2.47-1.69-2.55-3.04-.08-1.41.72-2.79,2.12-3.43.99-.45,2.05-.67,3.11-.67M66.82,148.41c-1.31,0-2.57.27-3.74.81-1.93.88-3.1,2.8-2.99,4.88.07,1.23.65,2.38,1.56,3.23l-.78,1.75-.89,1.98-.5,1.11.99.71c1.78,1.29,3.83,1.97,5.91,1.97,1.32,0,2.59-.28,3.79-.82,2-.92,3.17-2.94,2.96-5.16-.18-1.92-1.67-3.65-3.63-4.2l-3.69-1.04c.18-.04.44-.08.78-.08.98,0,2.16.31,2.79.73l1.43.96.75-1.55c.32-.67.6-1.35.88-2.15l.41-1.18-1.08-.62c-1.54-.88-3.25-1.34-4.95-1.34h0ZM66.72,159.67c-1.32,0-2.9-.58-3.49-1.11l-.59-.52c.34.19.7.34,1.09.45l3.79,1.07c-.16.05-.42.1-.8.1h0Z"/>
    </g>
    <g>
      <path class="cls-3" d="M90.22,164.11c-1.91,0-3.88-.66-5.54-1.87l-.52-.38,1.71-3.35.72.62c.74.63,2.52,1.31,3.99,1.31,1.03,0,1.59-.31,1.67-.91-.01-.16-.33-.59-.59-.66l-3.74-1.02c-1.86-.51-3.14-1.92-3.28-3.6-.15-1.87.79-3.52,2.44-4.29,1.13-.53,2.34-.79,3.59-.79,1.54,0,3.09.42,4.5,1.21l.5.28-.14.56c-.18.69-.45,1.4-.82,2.17l-.39.79-.72-.51c-.69-.5-1.97-.84-3.11-.84-.85,0-1.85.21-1.89.82,0,.17.32.58.52.64l4.04,1.17c1.65.48,2.9,1.91,3.04,3.48.17,1.86-.7,3.47-2.32,4.31-1.13.58-2.36.88-3.66.88Z"/>
      <path class="cls-1" d="M90.67,149.91c1.4,0,2.82.38,4.14,1.12-.18.69-.45,1.37-.77,2.02-.85-.61-2.28-.99-3.55-.99-1.37,0-2.57.44-2.64,1.51-.04.5.52,1.26,1.06,1.42l4.04,1.17c1.42.41,2.4,1.62,2.51,2.83.13,1.43-.46,2.82-1.92,3.57-1.06.55-2.18.8-3.31.8-1.8,0-3.6-.64-5.1-1.73l.98-1.93c.92.79,2.88,1.49,4.47,1.49,1.24,0,2.27-.43,2.42-1.57.06-.5-.52-1.31-1.14-1.48l-3.74-1.02c-1.5-.41-2.62-1.53-2.73-2.94-.12-1.47.57-2.88,2.01-3.55,1.04-.49,2.15-.72,3.27-.72M90.67,148.41c-1.36,0-2.67.29-3.91.87-1.95.91-3.05,2.83-2.87,5.03.1,1.24.71,2.35,1.67,3.16l-.8,1.56-.98,1.93-.58,1.14,1.04.75c1.79,1.3,3.91,2.01,5.98,2.01,1.42,0,2.76-.32,4-.96,1.9-.98,2.92-2.87,2.72-5.04-.13-1.44-1.04-2.78-2.33-3.58l.77-1.56c.4-.81.69-1.57.88-2.31l.28-1.12-1-.56c-1.52-.86-3.21-1.31-4.87-1.31h0ZM89.66,153.65c.19-.05.47-.09.83-.09.98,0,2.1.3,2.67.7l1.24.88c-.33-.18-.67-.33-1.04-.43l-3.7-1.07h0ZM90.58,159.69c-1.28,0-2.87-.6-3.5-1.13l-.52-.45c.36.19.75.34,1.16.45l3.67,1c-.13.05-.38.12-.81.12h0Z"/>
    </g>
    <g>
      <path class="cls-3" d="M106.84,164.1c-1.93,0-3.92-.68-5.46-1.87l-.47-.36,1.53-3.38.76.63c.88.73,2.66,1.31,4.05,1.31.6,0,1.63-.11,1.68-.81.02-.25-.23-.64-.55-.73l-4.04-1.14c-1.62-.46-2.85-1.88-3-3.46-.17-1.72.67-3.31,2.18-4.15,1.16-.64,2.43-.97,3.8-.97,1.54,0,3.13.43,4.58,1.23l.53.29-.17.58c-.25.83-.54,1.5-.93,2.17l-.43.72-.67-.51c-.65-.49-1.94-.85-3.07-.85-.42,0-1.77.06-1.84.82.01.17.34.6.51.65l3.94,1.12c1.56.44,2.86,1.83,3.09,3.29.27,1.78-.54,3.51-2.08,4.39-1.17.67-2.52,1.03-3.92,1.03Z"/>
      <path class="cls-1" d="M107.31,149.92c1.44,0,2.89.41,4.22,1.14-.23.77-.5,1.39-.86,1.99-.79-.6-2.24-1-3.53-1s-2.49.43-2.59,1.5c-.04.48.52,1.29,1.05,1.44l3.94,1.12c1.33.38,2.38,1.56,2.55,2.68.21,1.37-.35,2.85-1.71,3.63-1.11.64-2.33.93-3.55.93-1.81,0-3.61-.64-5.01-1.71l.88-1.94c1.02.86,2.96,1.48,4.53,1.48,1.3,0,2.35-.43,2.43-1.5.05-.63-.45-1.33-1.09-1.51l-4.05-1.14c-1.38-.39-2.35-1.6-2.46-2.81-.13-1.38.51-2.71,1.8-3.42,1.07-.6,2.25-.87,3.43-.87M107.31,148.42c-1.49,0-2.9.36-4.16,1.06-1.77.99-2.75,2.86-2.56,4.88.11,1.14.69,2.21,1.55,2.99l-.78,1.73-.88,1.94-.49,1.08.94.73c1.69,1.31,3.8,2.02,5.92,2.02,1.53,0,3.02-.39,4.3-1.13,1.8-1.04,2.76-3.07,2.44-5.16-.21-1.34-1.17-2.63-2.44-3.38l.81-1.36c.42-.71.74-1.45,1.01-2.34l.34-1.16-1.06-.58c-1.57-.87-3.28-1.33-4.95-1.33h0ZM106.33,153.64c.18-.05.45-.09.81-.09,1.07,0,2.17.35,2.62.69l.89.68c-.23-.1-.46-.19-.7-.26l-3.63-1.03h0ZM107.25,159.68c-1.22,0-2.82-.51-3.57-1.13l-.67-.56c.35.2.73.36,1.12.47l3.93,1.11c-.15.05-.42.11-.82.11h0Z"/>
    </g>
    <g>
      <path class="cls-3" d="M132.6,164.08c-4.24,0-7.57-3.27-7.57-7.45,0-2,.75-3.87,2.13-5.25,1.42-1.42,3.35-2.2,5.46-2.2h.14c2.35.04,4.15.83,5.49,2.42l.44.53-2.65,2.66-.53-.6c-.8-.9-1.66-1.32-2.72-1.32-.39,0-.81.06-1.26.17-1.06.27-2.28,1.33-2.47,3.01-.19,1.71.58,3.27,1.91,3.89.59.27,1.17.41,1.75.41,1.04,0,2.01-.48,2.78-1.38l.51-.59,2.67,2.49-.38.54c-1.23,1.72-3.1,2.61-5.55,2.66h-.15Z"/>
      <path class="cls-1" d="M132.62,149.93s.09,0,.13,0c1.92.03,3.63.62,4.93,2.15l-1.6,1.61c-.96-1.08-2.04-1.57-3.28-1.57-.46,0-.94.07-1.45.2-1.48.38-2.81,1.75-3.03,3.65-.23,2.08.73,3.91,2.34,4.65.69.32,1.38.48,2.06.48,1.23,0,2.4-.53,3.35-1.64l1.62,1.51c-1.2,1.68-2.97,2.31-4.95,2.34-.05,0-.09,0-.14,0-3.86,0-6.82-2.97-6.82-6.7,0-3.77,2.95-6.7,6.84-6.7M132.62,148.43c-2.3,0-4.43.86-5.99,2.42-1.52,1.52-2.36,3.58-2.35,5.78,0,4.6,3.66,8.2,8.32,8.2h.16c2.71-.05,4.77-1.05,6.15-2.97l.76-1.07-.96-.9-1.62-1.51-1.14-1.06-1.02,1.18c-.64.74-1.38,1.11-2.21,1.11-.46,0-.94-.12-1.43-.34-1.04-.48-1.63-1.74-1.48-3.13.15-1.33,1.09-2.16,1.91-2.37.39-.1.75-.15,1.08-.15.84,0,1.51.33,2.16,1.06l1.06,1.19,1.13-1.13,1.6-1.61.97-.98-.89-1.05c-1.47-1.74-3.51-2.64-6.05-2.68h-.16Z"/>
    </g>
    <g>
      <path class="cls-3" d="M76.37,163.79l.03-5.11-5.64-9.32,4.37.04,3.32,5.36,3.22-5.28.38-.03c.32-.02.62-.04.96-.04.43,0,.93.02,1.64.08l1.22.1-5.57,9.06-.03,5.25-3.91-.11Z"/>
      <path class="cls-1" d="M72.1,150.13l2.62.02,3.75,6.05,3.66-5.99c.3-.02.59-.04.91-.04.41,0,.89.02,1.58.08l-5.04,8.19-.02,4.69-2.41-.07.02-4.59-5.05-8.35M69.43,148.61l1.39,2.3,4.83,7.98-.02,4.16v1.47s1.46.04,1.46.04l2.41.07,1.53.04v-1.54s.03-4.27.03-4.27l4.82-7.84,1.28-2.09-2.44-.2c-.71-.06-1.23-.08-1.7-.08-.33,0-.64.01-1.02.04l-.77.06-.4.66-2.39,3.91-2.46-3.97-.44-.7h-.83s-2.62-.03-2.62-.03l-2.69-.02h0Z"/>
    </g>
    <g>
      <polygon class="cls-3" points="166.8 149.43 170.73 149.42 170.74 163.83 166.79 163.86 166.8 149.43"/>
      <path class="cls-1" d="M169.98,150.18v12.91s-2.44.02-2.44.02v-12.92s2.44,0,2.44,0M171.48,148.67h-1.5s-2.43,0-2.43,0h-1.5s0,1.5,0,1.5v12.92s0,1.51,0,1.51h1.51s2.44-.03,2.44-.03h1.49s0-1.5,0-1.5v-12.91s0-1.5,0-1.5h0Z"/>
    </g>
  </g>
  <g>
    <g>
      <path class="cls-2" d="M99.29,134.25c-3.23,0-6.49-.31-9.69-.92-5.11-.97-10.22-2.85-16.06-5.9-3.39.51-6.22.75-8.87.75-4.71,0-8.71-.78-12.23-2.38-5.2-2.43-8.65-7.29-9.02-12.68-.49-7.13,2.37-13.28,5.65-19.46l-.05-.36c-.37-2.71-.72-5.27-.81-8.07-.35-10.42,2.88-20.78,9.36-29.97,9.76-13.28,25.35-21.21,41.71-21.21,9.16,0,18.21,2.47,26.2,7.15,3.28-.67,6.47-1,9.47-1,5.08,0,9.37.97,12.74,2.88,3.72,2.16,6.14,5.56,7.02,9.82,1.17,5.74-.58,12.7-5.36,21.25-.09.21.05.95.12,1.27.03.14.05.27.07.39,1.91,11.26-.19,22.82-5.9,32.57-2.93,5-6.24,9.13-10.14,12.64-9.44,8.52-21.59,13.21-34.2,13.21ZM85.02,124.55c4.56,1.6,9.33,2.4,14.2,2.4,11.98,0,23.56-5.02,31.79-13.77,2.48-2.64,4.37-5.13,5.96-7.84,4.02-6.88,6.01-14.15,5.93-21.65-2.77,3.38-5.76,6.85-9.17,10.07l-1.21,1.14-1.95-7.03.39-.41c8.72-9.07,14.12-17.16,16.51-24.72.86-2.73,2.43-9.47-1.67-12.98-2.35-2.01-6.16-3.12-10.72-3.12-.66,0-1.32.02-1.98.07,5.82,5.15,10.27,11.25,13.24,18.17l.16.38-.15.38c-.92,2.35-1.97,4.37-3.39,6.55l-1.15,1.77-.64-2.02c-3.14-9.94-9.4-18.11-18.11-23.65-8.4,2.24-16.75,5.76-25.5,10.76l-.41.23-7.61-2.83,1.73-1.08c7.43-4.62,15.1-8.34,23.36-11.32-4.91-1.82-10.06-2.74-15.35-2.74-9.36,0-18.3,2.88-25.84,8.33-11.46,8.28-18.01,21.05-17.84,34.53l7.35-8.43-.56,10.2-4.07,5.35c-3.56,4.67-9.84,15.43-8.12,22.76.59,2.53,2.08,4.35,4.53,5.56,2.8,1.38,6.27,2.08,10.32,2.08,11.09,0,24.54-5.2,33.42-10.06l4.34-2.38c.54-.3,1.1-.61,1.67-.77l.33-.09.32.13c1.76.71,3.24,1.06,5.5,1.5l2.43.47-2.07,1.35c-7.99,5.21-16.51,9.37-25.96,12.68Z"/>
      <path class="cls-3" d="M99.27,35.07c8.87,0,17.85,2.34,26.02,7.21,3.03-.64,6.35-1.06,9.65-1.06,4.38,0,8.72.75,12.25,2.75,3.46,2.01,5.72,5.2,6.53,9.15,1.4,6.83-1.93,14.62-5.25,20.57-.33.59-.04,1.64.08,2.31,1.86,10.94-.16,22.32-5.78,31.9-2.69,4.59-5.9,8.76-9.94,12.4-9.39,8.47-21.26,12.95-33.53,12.95-3.15,0-6.33-.3-9.5-.9-5.72-1.08-10.94-3.25-16.07-5.96-2.98.46-6.03.79-9.04.79-4.08,0-8.1-.6-11.81-2.29-4.71-2.21-8.08-6.6-8.44-11.84-.49-7.06,2.44-13.11,5.69-19.2-.4-2.92-.8-5.67-.9-8.64-.36-10.6,3.06-20.68,9.18-29.36,9.92-13.49,25.24-20.78,40.89-20.78M54.71,86.75l7.08-8.12-.39,6.98-3.89,5.1c-5.3,6.95-14.55,24.24-3.24,29.82,3.13,1.54,6.81,2.19,10.76,2.19,11.61,0,25.46-5.57,33.9-10.18l4.12-2.26c.55-.3,1.15-.66,1.69-.81,1.91.77,3.53,1.14,5.69,1.55-8.79,5.73-18.22,10.14-28.35,13.45,5.54,2.33,11.36,3.46,17.14,3.46,12.06,0,23.9-4.92,32.52-14.08,2.33-2.47,4.34-5.03,6.09-8.02,4.39-7.51,6.61-15.94,5.96-24.84-3.41,4.24-6.81,8.31-10.75,12.02l-1.35-4.88c6.73-7.01,13.77-15.72,16.74-25.12,1.45-4.58,2-10.65-1.98-14.04-2.84-2.42-7.2-3.36-11.37-3.36-1.51,0-3,.12-4.38.34,6.48,5.27,11.45,11.66,14.73,19.3-.89,2.27-1.92,4.25-3.3,6.37-3.24-10.25-9.78-18.74-18.9-24.43-9.24,2.42-17.88,6.24-26.16,10.97l-5.26-1.95c8.01-4.99,16.44-8.98,25.67-12.1-5.82-2.55-12.02-3.8-18.18-3.8-9.35,0-18.63,2.88-26.43,8.52-12.02,8.69-19.24,22.87-18.15,37.89M99.27,33.07c-16.68,0-32.57,8.07-42.51,21.6-6.63,9.4-9.93,19.97-9.57,30.61.1,2.85.45,5.43.82,8.17v.04c-3.28,6.22-6.11,12.43-5.61,19.71.4,5.75,4.07,10.93,9.59,13.51,3.67,1.67,7.8,2.48,12.66,2.48,2.62,0,5.4-.23,8.7-.71,5.81,3.01,10.93,4.87,16.05,5.85,3.26.62,6.59.93,9.88.93,12.86,0,25.24-4.78,34.87-13.46,3.97-3.58,7.35-7.79,10.33-12.88,5.83-9.95,7.97-21.76,6.02-33.24-.02-.13-.05-.27-.08-.41-.04-.21-.11-.57-.12-.77,4.83-8.69,6.58-15.81,5.37-21.76-.93-4.55-3.52-8.18-7.48-10.48-3.55-2.01-8-3.02-13.25-3.02-2.96,0-6.08.32-9.3.95-8.05-4.65-17.15-7.1-26.37-7.1h0ZM56.67,81.47c.69-12.14,6.95-23.46,17.37-30.99,7.37-5.33,16.1-8.15,25.26-8.15,4.22,0,8.35.6,12.34,1.79-7.32,2.83-14.2,6.26-20.89,10.42l-3.46,2.15,3.82,1.42,5.26,1.95.88.33.81-.46c8.53-4.87,16.67-8.33,24.84-10.55,8.31,5.41,14.3,13.3,17.32,22.87l.54,1.72c-2.7,4.05-6.2,8.29-10.52,12.79l-.79.82.3,1.1,1.35,4.88.89,3.2,2.41-2.28c2.71-2.56,5.15-5.26,7.42-7.94-.39,6.31-2.31,12.45-5.72,18.29-1.55,2.64-3.4,5.08-5.82,7.66-8.04,8.55-19.36,13.45-31.06,13.45-3.77,0-7.47-.49-11.07-1.48,8.42-3.16,16.11-7.03,23.37-11.77l4.15-2.7-4.86-.94c-2.21-.43-3.64-.76-5.32-1.44l-.63-.25-.65.18c-.69.19-1.34.55-1.9.86l-.21.12-4.12,2.26c-8.77,4.8-22.03,9.94-32.93,9.94-3.89,0-7.21-.67-9.87-1.98-2.17-1.07-3.47-2.67-4-4.9-1.52-6.46,3.92-16.65,7.94-21.92l3.89-5.1.37-.49.03-.61.39-6.98.32-5.81-3.83,4.39-3.62,4.15h0ZM146.45,62.68c-2.66-5.59-6.3-10.62-10.86-15.03,4.04.08,7.51,1.12,9.56,2.87,3.65,3.12,2.17,9.37,1.37,11.92-.03.08-.05.16-.08.24h0Z"/>
    </g>
    <g>
      <path class="cls-2" d="M85.12,110.05c-.82,0-1.64-.05-2.46-.15-3.68-.44-6.65-1.53-9.34-3.42-11.31-7.95-12.9-24.61-7.91-36.13,2.2-5.08,5.8-9.01,10.4-11.36,2.99-1.53,6.39-2.33,9.84-2.33,4.66,0,9.36,1.47,13.21,4.15l.81.56-.55.82c-1.05,1.56-1.82,3.15-2.51,5.16l-.46,1.35-1.11-.89c-2.74-2.18-5.95-3.33-9.29-3.33-4.82,0-9.08,2.39-11.7,6.56-2.19,3.48-3.29,7.67-3.26,12.43.02,4,.63,7.18,1.91,9.98,2.5,5.47,7.11,8.74,12.34,8.74h0c.58,0,1.18-.04,1.77-.12,4.59-.61,8.46-3.92,9.62-8.25.23-.87.17-1.83.1-2.84-.04-.52-.07-1.05-.07-1.59l-14.26-.02-.03-7.54,15.21.04,6.87.1-.12,13.29c-.01,1.27-.72,2.53-1.34,3.65-.14.26-.28.5-.4.74-3.29,6.41-9.91,10.39-17.27,10.39Z"/>
      <path class="cls-3" d="M85.65,57.66c4.45,0,8.91,1.38,12.64,3.97-1.22,1.82-1.99,3.54-2.63,5.4-2.99-2.38-6.49-3.55-9.91-3.55-4.89,0-9.63,2.38-12.55,7.03-2.44,3.89-3.44,8.34-3.41,12.97.02,3.64.5,7.09,2,10.39,2.49,5.45,7.25,9.33,13.25,9.33.62,0,1.26-.04,1.9-.13,4.85-.64,9.17-4.2,10.46-8.98.49-1.81-.11-3.72.12-5.69l-14.32-.02-.02-5.53,14.2.04,5.87.09-.11,12.3c-.01,1.29-1.04,2.79-1.63,3.94-3.21,6.26-9.55,9.84-16.38,9.84-.77,0-1.55-.05-2.34-.14-3.28-.39-6.15-1.32-8.89-3.24-10.65-7.49-12.55-23.42-7.57-34.91,2.03-4.7,5.38-8.54,9.94-10.87,2.94-1.5,6.16-2.22,9.38-2.22M85.65,55.66c-3.6,0-7.16.84-10.29,2.44-4.81,2.46-8.57,6.56-10.87,11.85-5.15,11.88-3.47,29.1,8.26,37.34,2.83,1.99,5.95,3.13,9.8,3.59.85.1,1.72.15,2.58.15,7.74,0,14.7-4.19,18.16-10.93.11-.22.25-.46.38-.71.65-1.16,1.45-2.6,1.46-4.13l.11-12.3.02-1.99-1.99-.03-5.87-.09-14.22-.04h-2.01s0,2.01,0,2.01l.02,5.53v1.99s2,0,2,0l12.3.02c.01.23.03.45.04.66.07.97.12,1.81-.07,2.51-1.05,3.88-4.66,6.98-8.79,7.52-.55.07-1.1.11-1.64.11-4.83,0-9.1-3.05-11.43-8.16-1.22-2.67-1.8-5.71-1.82-9.57-.03-4.57,1.02-8.57,3.1-11.89,2.43-3.87,6.39-6.09,10.86-6.09,3.11,0,6.11,1.08,8.67,3.12l2.22,1.77.92-2.69c.65-1.92,1.39-3.44,2.39-4.92l1.1-1.64-1.62-1.13c-4.02-2.79-8.91-4.33-13.78-4.33h0Z"/>
    </g>
    <g>
      <path class="cls-2" d="M113.57,110.02c-5.49-.11-10.13-1.7-13.79-4.73l-.76-.63.62-.77c1.22-1.5,2.25-2.98,3.24-4.64l.61-1.03.9.79c2.38,2.07,5.95,3.31,9.55,3.31,2.63,0,5.06-.68,6.85-1.93,1.63-1.14,2.69-2.91,2.89-4.87.2-1.91-.4-3.73-1.71-5.12-1.01-1.08-2.4-1.99-3.92-2.55l-10.49-3.9c-3.33-1.24-5.75-2.68-7.62-4.55-2.49-2.49-3.77-5.84-3.59-9.43.18-3.7,1.92-7.15,4.77-9.49,3.1-2.53,7.13-3.83,11.99-3.86h.13c7.99,0,14.25,3.64,17.64,10.25l.4.79-6.68,4.5-.49-1.08c-1.88-4.16-5.56-6.62-10.09-6.76-.23,0-.45-.01-.68-.01-2.7,0-4.72.54-6.38,1.7-1.38.97-2.26,2.4-2.41,3.92-.31,3.13,1.58,5.14,6.52,6.93l9.36,3.39c3.44,1.25,6.08,2.92,8.07,5.12,2.32,2.56,3.48,6.1,3.26,9.97-.22,3.99-1.9,7.73-4.5,10.03-3.49,3.08-7.91,4.64-13.16,4.64-.19,0-.38,0-.56,0Z"/>
      <path class="cls-3" d="M113.25,57.63c7.31,0,13.37,3.11,16.75,9.71l-4.96,3.35c-2.05-4.53-6.08-7.2-10.97-7.35-.24,0-.47-.01-.71-.01-2.5,0-4.89.44-6.95,1.88-1.62,1.13-2.65,2.81-2.83,4.64-.44,4.49,3.29,6.56,7.18,7.97l9.36,3.39c2.91,1.05,5.59,2.55,7.67,4.85,4.78,5.29,3.52,14.45-1.16,18.58-3.57,3.15-7.89,4.39-12.49,4.39-.18,0-.36,0-.54,0-4.84-.1-9.45-1.42-13.18-4.5,1.24-1.54,2.29-3.03,3.32-4.75,2.62,2.28,6.47,3.55,10.21,3.55,2.71,0,5.35-.67,7.42-2.11,3.82-2.66,4.54-8.08,1.35-11.5-1.16-1.24-2.7-2.21-4.3-2.8l-10.49-3.9c-2.66-.99-5.23-2.29-7.26-4.32-4.91-4.9-4.21-13.08,1.11-17.43,3.22-2.64,7.2-3.61,11.36-3.63.04,0,.09,0,.13,0M113.25,55.63h-.14c-5.09.03-9.34,1.4-12.62,4.08-3.07,2.51-4.94,6.23-5.14,10.21-.19,3.88,1.19,7.49,3.88,10.18,1.97,1.97,4.51,3.49,7.98,4.78l10.49,3.9c1.37.51,2.63,1.33,3.53,2.29,1.1,1.18,1.62,2.72,1.45,4.34-.18,1.67-1.08,3.19-2.47,4.16-1.62,1.13-3.85,1.75-6.27,1.75-3.37,0-6.7-1.14-8.9-3.06l-1.8-1.57-1.23,2.05c-.97,1.62-1.97,3.06-3.16,4.52l-1.25,1.54,1.53,1.26c3.84,3.17,8.69,4.84,14.41,4.95.2,0,.39,0,.59,0,5.49,0,10.14-1.65,13.82-4.89,2.79-2.47,4.6-6.47,4.84-10.72.23-4.14-1.02-7.94-3.52-10.7-2.1-2.32-4.87-4.09-8.47-5.39l-9.36-3.39c-4.48-1.62-6.13-3.27-5.87-5.89.12-1.23.85-2.39,1.99-3.2,1.48-1.04,3.33-1.52,5.81-1.52.21,0,.43,0,.65.01,4.14.13,7.49,2.38,9.21,6.18l.98,2.16,1.97-1.33,4.96-3.35,1.47-.99-.81-1.58c-3.56-6.96-10.15-10.8-18.53-10.8h0Z"/>
    </g>
    <g>
      <path class="cls-2" d="M65.54,121.37c-3.14-2.65-5.54-5.57-7.67-8.34-2.45-3.18-4.17-6.67-5.71-9.98l-.19-.41.18-.42c1.1-2.47,2.14-4.46,3.39-6.43l1.13-1.78.66,2.01c3.1,9.37,8.52,16.87,16.57,22.93l1.73,1.3-2.11.47c-2.37.53-4.61.71-7.28.88l-.4.03-.31-.26Z"/>
      <path class="cls-3" d="M56.4,96.33c3.17,9.59,8.84,17.33,16.92,23.42-2.32.52-4.54.69-7.12.86-2.93-2.48-5.22-5.2-7.52-8.18-2.33-3.02-3.97-6.3-5.59-9.79.98-2.22,2-4.22,3.32-6.3M56.97,91.69l-2.26,3.57c-1.28,2.02-2.35,4.04-3.46,6.56l-.37.83.39.82c1.57,3.35,3.31,6.9,5.82,10.16,2.16,2.81,4.61,5.78,7.81,8.49l.62.52.8-.05c2.71-.18,4.98-.35,7.43-.9l4.22-.95-3.46-2.6c-7.88-5.94-13.19-13.28-16.22-22.45l-1.33-4.01h0Z"/>
    </g>
  </g>
</svg>